<?xml version="1.0" encoding="utf-8"?>
<!-- Generator: Adobe Illustrator 22.1.0, SVG Export Plug-In . SVG Version: 6.00 Build 0)  -->
<svg version="1.1" id="Layer_1" xmlns="http://www.w3.org/2000/svg" xmlns:xlink="http://www.w3.org/1999/xlink" x="0px" y="0px"
	 viewBox="0 0 42 32" style="enable-background:new 0 0 42 32;" xml:space="preserve">
<style type="text/css">
	.st0{fill:#FFFFFF;}
</style>
<g>
	<path class="st0" d="M33.9,15.1c-0.2-0.1-0.5,0.1-0.5,0.3c-0.1,0.2,0.1,0.5,0.3,0.5c3.3,1.1,4.8,2.6,4.8,5.1c0,2.2-2,3.9-3.2,4.7
		C35.1,25.8,35,26,35,26.1v3.2c-0.6-0.2-1.7-0.8-2.6-1.8c-0.1-0.1-0.2-0.2-0.4-0.1c-0.2,0-0.5,0.1-0.7,0.2c-0.4,0.1-0.9,0.2-1.3,0.2
		c-2.2,0-3.7-0.5-5.2-1.6c-0.2-0.1-0.5-0.1-0.6,0.1c-0.1,0.2-0.1,0.5,0.1,0.6c1.7,1.3,3.4,1.8,5.7,1.8c0.5,0,1-0.1,1.5-0.3
		c0.2,0,0.3-0.1,0.4-0.1c1.6,1.7,3.4,2,3.4,2.1c0,0,0.1,0,0.1,0c0.1,0,0.2,0,0.3-0.1c0.1-0.1,0.2-0.2,0.2-0.3v-3.6
		c2.2-1.6,3.4-3.4,3.4-5.3C39.2,18.2,37.5,16.3,33.9,15.1z"/>
	<path class="st0" d="M31.6,14.7c0-6.5-5.9-11.4-13.8-11.4c-7.9,0-14.1,5-14.1,11.4c0,3.8,2.7,6.6,5.1,8.2v5.6
		c0,0.1,0.1,0.3,0.2,0.4c0.1,0,0.1,0.1,0.2,0.1c0.1,0,0.1,0,0.2,0c0.1-0.1,3-1.4,5.5-4.1c1.1,0.2,2.3,0.4,3.4,0.4
		C26.3,25.3,31.6,21,31.6,14.7z M18.3,24.4c-1.1,0-2.4-0.2-3.4-0.4c-0.1,0-0.3,0-0.4,0.1c-1.7,2-3.8,3.2-4.7,3.7v-5.1
		c0-0.1-0.1-0.3-0.2-0.3c-2.2-1.5-4.9-4.1-4.9-7.7c0-5.9,5.8-10.5,13.2-10.5c7.4,0,12.9,4.5,12.9,10.5
		C30.8,20.5,25.8,24.4,18.3,24.4z"/>
	<path class="st0" d="M17.7,13c-0.9,0-1.7,0.8-1.7,1.7c0,0.9,0.8,1.7,1.7,1.7s1.7-0.8,1.7-1.7C19.4,13.8,18.6,13,17.7,13z
		 M17.7,15.5c-0.5,0-0.8-0.4-0.8-0.8c0-0.5,0.4-0.8,0.8-0.8c0.5,0,0.8,0.4,0.8,0.8C18.6,15.2,18.2,15.5,17.7,15.5z"/>
	<path class="st0" d="M23.6,13c-0.9,0-1.7,0.8-1.7,1.7c0,0.9,0.8,1.7,1.7,1.7s1.7-0.8,1.7-1.7C25.3,13.8,24.6,13,23.6,13z
		 M23.6,15.5c-0.5,0-0.8-0.4-0.8-0.8c0-0.5,0.4-0.8,0.8-0.8s0.8,0.4,0.8,0.8C24.5,15.2,24.1,15.5,23.6,15.5z"/>
	<path class="st0" d="M11.8,13.1c-0.9,0-1.7,0.8-1.7,1.7c0,0.9,0.8,1.7,1.7,1.7s1.7-0.8,1.7-1.7C13.5,13.9,12.7,13.1,11.8,13.1z
		 M11.8,15.6c-0.5,0-0.8-0.4-0.8-0.8c0-0.5,0.4-0.8,0.8-0.8s0.8,0.4,0.8,0.8C12.7,15.2,12.3,15.6,11.8,15.6z"/>
</g>
</svg>
