<?xml version="1.0" encoding="utf-8"?>
<!-- Generator: Adobe Illustrator 22.1.0, SVG Export Plug-In . SVG Version: 6.00 Build 0)  -->
<svg version="1.1" id="Capa_1" xmlns="http://www.w3.org/2000/svg" xmlns:xlink="http://www.w3.org/1999/xlink" x="0px" y="0px"
	 viewBox="0 0 512 512" style="enable-background:new 0 0 512 512;" xml:space="preserve">
<style type="text/css">
	.st0{fill:#FFFFFF;}
</style>
<g>
	<g>
		<path class="st0" d="M407,53H105c-8.3,0-15,6.7-15,15v359c0,8.3,6.7,15,15,15h302c8.3,0,15-6.7,15-15V68C422,59.7,415.3,53,407,53
			z M392,412H120V83h272L392,412L392,412z"/>
		<path class="st0" d="M217,148h-54.8v54.8h54.8L217,148L217,148z M210.3,166.2L186,190.5c-0.6,0.7-1.7,0.7-2.3,0l-14.8-14.9
			c-0.6-0.7-0.6-1.7,0-2.4l3.6-3.5c0.6-0.7,1.7-0.7,2.4,0l10.1,10.2l19.6-19.6c0.7-0.7,1.7-0.7,2.4,0l3.5,3.5
			C211,164.5,211,165.5,210.3,166.2z"/>
		<rect x="228.4" y="160.3" class="st0" width="125.4" height="30.1"/>
		<path class="st0" d="M217,219.4h-54.8v54.8h54.8L217,219.4L217,219.4z M210.3,237.6L186,261.9c-0.6,0.7-1.7,0.7-2.3,0L168.8,247
			c-0.6-0.7-0.6-1.7,0-2.4l3.6-3.5c0.6-0.7,1.7-0.7,2.4,0l10.1,10.2l19.6-19.6c0.7-0.7,1.7-0.7,2.4,0l3.5,3.5
			C211,235.9,211,236.9,210.3,237.6z"/>
		<rect x="228.4" y="231.7" class="st0" width="125.4" height="30.1"/>
		<rect x="162.2" y="292.5" class="st0" width="54.8" height="54.8"/>
		<rect x="228.4" y="304.8" class="st0" width="125.4" height="30.1"/>
	</g>
</g>
</svg>
