<?xml version="1.0" encoding="utf-8"?>
<!-- Generator: Adobe Illustrator 22.1.0, SVG Export Plug-In . SVG Version: 6.00 Build 0)  -->
<svg version="1.1" id="Слой_1" xmlns="http://www.w3.org/2000/svg" xmlns:xlink="http://www.w3.org/1999/xlink" x="0px" y="0px"
	 viewBox="0 0 1920 314.4" style="enable-background:new 0 0 1920 314.4;" xml:space="preserve">
<style type="text/css">
	.st0{fill:#E35050;}
	.st1{fill:#FFFFFF;}
	.st2{fill:#427696;}
	.st3{fill:#178747;}
	.st4{fill:#046029;}


	.bubble {
    animation: kek 2s infinite;
  }
  @keyframes kek {
    0%{
      transform: translate(0%, 20%);
    }
    20%{
      transform: translate(1%, 0%);
    }
    40%{
      transform: translate(0%, -20%);
    }
    60%{
      transform: translate(1%, -40%);
    }
    80%{
      opacity: 1;
      transform: translate(0%, -60%);
    }
    100%{
      transform: translate(1%, -80%);
      opacity: 0;
    }
  }
   .bubble1 {
    animation: keks 1.5s infinite;
  }
  @keyframes keks {
    0%{
      transform: translate(0%, 20%);
    }
    20%{
      transform: translate(1%, -0%);
    }
    40%{
      transform: translate(0%, -20%%);
    }
    60%{
      transform: translate(1%, -40%);
    }
    80%{
      opacity: 1;
      transform: translate(0%, -60%);
    }
    100%{
      transform: translate(1%, -80%);
      opacity: 0;
    }
  }
     .bubble3 {
    animation: kekss 3s infinite;
  }
  @keyframes kekss {
    0%{
      transform: translate(0%, 20%);
    }
    20%{
      transform: translate(2%, 0%);
    }
    40%{
      transform: translate(0%, -20%);
    }
    60%{
      transform: translate(2%, -40%);
    }
    80%{
      opacity: 1;
      transform: translate(0%, -60%);
    }
    100%{
      transform: translate(2%, -80%);
      opacity: 0;
    }
  }
    .bubble2 {
    animation: kekd 2.5s infinite;
  }
  @keyframes kekd {
    0%{
      transform: translate(0%, 20%);
    }
    20%{
      transform: translate(1%, 0%);
    }
    40%{
      transform: translate(0%, -20%);
    }
    60%{
      transform: translate(1%, -40%);
    }
    80%{
      opacity: 1;
      transform: translate(0%, -60%);
    }
    100%{
      transform: translate(1%, -80%);
      opacity: 0;
    }
  }

</style>
<g>
	<path class="st0" d="M129.1,217.7c-0.9-4.1-8-40.6-7.8-55.1c0.1-14.6-7.6-48.3,22.2-22.5c28.5,24.7,50.9,46,69.6,39.7
		c21-7,71.9-25.3,78.7-25.4c6.7-0.1,13.7,7.8-7.3,33.3c-21,25.4-37.9,31.7-15.9,51.3c29,25.6,55.3,45.4,47.9,57.1
		c-7.5,11.9-27.5,7.4-56.5-5.7c-26.6-12-51.8-30.3-53.5,10.1c-1.2,30.6,5.1,73.6-11.9,78.5c-16.5,4.8-28.8-26.8-39.9-50.8
		s-9.6-49.7-30.6-44.2s-66.9,19.6-74.4,6c-5.2-9.4,21.6-29.6,43-40.3C115,238.9,133.4,236.2,129.1,217.7z"/>
	<path class="st1" d="M231.7,244.6c-2.3-3.8-7.2-5.4-10.9-3.4c-3.7,1.9-4.9,6.7-2.6,10.5s7.2,5.4,10.9,3.4
		C232.8,253.2,234,248.4,231.7,244.6z"/>
	<path class="st1" d="M169.5,201.7c-2.3-3.8-7.2-5.4-10.9-3.4c-3.7,1.9-4.9,6.7-2.6,10.5c2.3,3.8,7.2,5.4,10.9,3.4
		C170.7,210.3,171.8,205.5,169.5,201.7z"/>
	<path class="st1" d="M235.2,197.8c-2.3-3.8-7.2-5.4-10.9-3.4c-3.7,1.9-4.9,6.7-2.6,10.5c2.3,3.8,7.2,5.4,10.9,3.4
		C236.3,206.3,237.5,201.6,235.2,197.8z"/>
	<path class="st1" d="M205.5,227.2c-1.7-2.8-5.2-3.9-7.9-2.5c-2.7,1.5-3.5,4.9-1.9,7.6c1.7,2.8,5.2,3.9,7.9,2.5
		C206.3,233.4,207.2,230,205.5,227.2z"/>
	<path class="st1" d="M182.3,289c-1.7-2.8-5.2-3.9-7.9-2.5c-2.7,1.5-3.5,4.9-1.9,7.6s5.2,3.9,7.9,2.5
		C183.1,295.1,184,291.7,182.3,289z"/>
	<path class="st1" d="M151.3,255.3c-1.7-2.8-5.2-3.9-7.9-2.5c-2.7,1.5-3.5,4.9-1.9,7.6c1.7,2.8,5.2,3.9,7.9,2.5
		C152.1,261.5,153,258.1,151.3,255.3z"/>
	<path class="st1" d="M158.6,177.8c-1.7-2.8-5.2-3.9-7.9-2.5c-2.7,1.5-3.5,4.9-1.9,7.6c1.7,2.8,5.2,3.9,7.9,2.5
		C159.5,184.1,160.3,180.7,158.6,177.8z"/>
</g>
<g>
	<g class='bubble2'>
		<ellipse class="st2" cx="661" cy="274.5" rx="9.3" ry="9"/>
		
			<ellipse transform="matrix(0.7287 -0.6848 0.6848 0.7287 -5.0186 529.0535)" class="st1" cx="665.2" cy="270.9" rx="1.2" ry="2.3"/>
	</g>
	<g class='bubble3'>
		<ellipse class="st2" cx="711.1" cy="270.9" rx="9.3" ry="9"/>
		
			<ellipse transform="matrix(0.7287 -0.6848 0.6848 0.7287 11.1173 562.4258)" class="st1" cx="715.4" cy="267.2" rx="1.2" ry="2.3"/>
	</g>
	<g class='bubble'>
		<ellipse class="st2" cx="609.3" cy="261.9" rx="9.3" ry="9"/>
		
			<ellipse transform="matrix(0.7287 -0.6848 0.6848 0.7287 -10.3637 490.2075)" class="st1" cx="613.5" cy="258.2" rx="1.2" ry="2.3"/>
	</g>
	<g  class='bubble3'>
		<ellipse class="st2" cx="682.3" cy="270.9" rx="9.3" ry="9"/>
		<ellipse transform="matrix(0.7287 -0.6848 0.6848 0.7287 3.285 542.6323)" class="st1" cx="686.5" cy="267.2" rx="1.2" ry="2.3"/>
	</g>
	<g  class='bubble1'>
		<ellipse class="st2" cx="634.4" cy="268.3" rx="9.3" ry="9"/>
		
			<ellipse transform="matrix(0.7287 -0.6848 0.6848 0.7287 -7.918 509.1925)" class="st1" cx="638.7" cy="264.6" rx="1.2" ry="2.3"/>
	</g>
	<g  class='bubble2'>
		<ellipse class="st2" cx="674.6" cy="246.9" rx="9.3" ry="9"/>
		
			<ellipse transform="matrix(0.7287 -0.6848 0.6848 0.7287 17.6647 530.9172)" class="st1" cx="678.9" cy="243.2" rx="1.2" ry="2.3"/>
	</g>
	<g  class='bubble'>
		<ellipse class="st2" cx="650.5" cy="246" rx="9.3" ry="9"/>
		
			<ellipse transform="matrix(0.7287 -0.6848 0.6848 0.7287 11.7264 514.1266)" class="st1" cx="654.8" cy="242.3" rx="1.2" ry="2.3"/>
	</g>
	<g class='bubble3'>
		<ellipse class="st2" cx="1357.1" cy="278.9" rx="9.3" ry="9"/>
		
			<ellipse transform="matrix(0.7287 -0.6848 0.6848 0.7287 180.7585 1006.8771)" class="st1" cx="1361.2" cy="275.3" rx="1.2" ry="2.3"/>
	</g>
	<g  class='bubble2'>
		<ellipse class="st2" cx="1407.3" cy="275.2" rx="9.3" ry="9"/>
		
			<ellipse transform="matrix(0.7287 -0.6848 0.6848 0.7287 196.9401 1040.1326)" class="st1" cx="1411.3" cy="271.5" rx="1.2" ry="2.3"/>
	</g>
	<g  class='bubble1'>
		<ellipse class="st2" cx="1305.4" cy="266.2" rx="9.3" ry="9"/>
		
			<ellipse transform="matrix(0.7287 -0.6848 0.6848 0.7287 175.439 968.0336)" class="st1" cx="1309.5" cy="262.6" rx="1.2" ry="2.3"/>
	</g>
	<g  class='bubble'>
		<ellipse class="st2" cx="1378.4" cy="275.2" rx="9.3" ry="9"/>
		
			<ellipse transform="matrix(0.7287 -0.6848 0.6848 0.7287 189.1094 1020.3488)" class="st1" cx="1382.4" cy="271.5" rx="1.2" ry="2.3"/>
	</g>
	<g class='bubble3'>
		<ellipse class="st2" cx="1330.6" cy="272.6" rx="9.3" ry="9"/>
		
			<ellipse transform="matrix(0.7287 -0.6848 0.6848 0.7287 177.9038 987.0157)" class="st1" cx="1334.7" cy="269" rx="1.2" ry="2.3"/>
	</g>
	<g  class='bubble2'>
		<ellipse class="st2" cx="1370.8" cy="251.3" rx="9.3" ry="9"/>
		
			<ellipse transform="matrix(0.7287 -0.6848 0.6848 0.7287 203.4917 1008.7789)" class="st1" cx="1375" cy="247.5" rx="1.2" ry="2.3"/>
	</g>
	<g  class='bubble1'>
		<ellipse class="st2" cx="1346.6" cy="250.2" rx="9.3" ry="9"/>
		
			<ellipse transform="matrix(0.7287 -0.6848 0.6848 0.7287 197.6001 991.9805)" class="st1" cx="1350.9" cy="246.6" rx="1.2" ry="2.3"/>
	</g>
</g>
<g>
	<path class="st3" d="M875.9,340.6c-15.8,12.1-125.6-173.3-107.5-201.2c3.5-5.5,11.2-3.8,16.5-2.5c66.5,16,102.9,158.6,93,199.8
		C877.6,338,877.1,339.6,875.9,340.6z"/>
	<path class="st3" d="M834.2,72.7c0.4,0.6,1.4,2.3,2.5,4.5c7,12.6,58.7,107.7,63.1,241.7c0.6,18.2-0.2,21.1-1.3,21.5
		c-8,3.2-41.7-126.4-69.5-239"/>
	<path class="st3" d="M890.5,107.1c-3.3,189.5,2.2,232.5,8.3,233.3c6.9,0.9,17.1-52.1,20.1-90.8c4.8-62.5-7.4-112.2-15.3-137.8"/>
	<path class="st3" d="M919.9,340.4c13.1,3.7,65.5-207.8,53.2-215.1c-6.7-4-35.9,50.7-48.4,110.2
		C915.2,280.7,913.2,338.5,919.9,340.4z"/>
	<path class="st4" d="M820.6,187c0.6-37.3,3.5-55.9,8.7-56c10.6-0.2,30.6,76,60.2,228.4"/>
	<path class="st4" d="M896.8,362.3c-12.7-5.7,19.3-209.9,32.9-208.2c7.8,1,14.7,70.4-1.2,134.3C920.2,321.7,903,365.1,896.8,362.3z"
		/>
	<path class="st4" d="M887.8,355.1c14.3-4.3-3.7-230.6-18.5-230.7c-8.1-0.1-19.2,67.5-11.8,130.5
		C863.1,302.5,880.5,357.3,887.8,355.1z"/>
</g>
<g>
	<path class="st3" d="M1071.3,366.1c-20.1,3.2-73.1-227-45.4-243.7c5.4-3.3,12.8,2.3,17.8,6.2c63.2,49.5,54.5,201.6,30.9,235
		C1073.8,364.6,1072.8,365.8,1071.3,366.1z"/>
	<path class="st3" d="M1065,76.5c0.3,0.7,1.1,2.6,2.1,5.1c5.9,14.3,48.6,121.3,33.6,255.9c-2,18.3-3.4,21-4.6,21.2
		c-9.3,1.3-27.1-135.9-41-254.7"/>
	<path class="st3" d="M1129.3,115.2c-38.5,186.4-40.5,230.5-34,233c7.4,2.9,28.2-46.5,38.6-83.8c16.7-60.4,12.6-113,8.7-140.7"/>
	<path class="st3" d="M1104.3,344.4c14,6.2,97.2-195.8,84.5-205.5c-6.9-5.3-45.7,43.9-66.6,101.2
		C1106.3,283.6,1097.2,341.3,1104.3,344.4z"/>
	<path class="st4" d="M992.5,225.2c-11.2-35.3-14.1-54.2-8.7-56.9c10.9-5.5,55.6,55.9,134.4,184.1"/>
	<path class="st4" d="M1079.7,354.4c-10.9-12.5,93.7-182,106.8-172.8c7.5,5.3-10,73-48.6,122.8
		C1117.8,330.3,1085,360.5,1079.7,354.4z"/>
	<path class="st4" d="M1111.2,367.7c19-4.2-4.9-226.7-24.4-226.9c-10.7-0.1-25.4,66.4-15.6,128.3
		C1078.6,316,1101.5,369.8,1111.2,367.7z"/>
</g>
<g>
	<path class="st3" d="M1587.6,326.2c-15.8,12.1-125.6-173.3-107.5-201.2c3.5-5.5,11.2-3.8,16.5-2.5c66.5,16,102.9,158.6,93,199.8
		C1589.3,323.7,1588.8,325.3,1587.6,326.2z"/>
	<path class="st3" d="M1546,58.3c0.4,0.6,1.4,2.3,2.5,4.5c7,12.6,58.7,107.7,63.1,241.7c0.6,18.2-0.2,21.1-1.3,21.5
		c-8,3.2-41.7-126.4-69.5-239"/>
	<path class="st3" d="M1602.2,92.8c-3.3,189.5,2.2,232.5,8.3,233.3c6.9,0.9,17.1-52.1,20.1-90.8c4.8-62.5-7.4-112.2-15.3-137.8"/>
	<path class="st3" d="M1631.6,326.1c13.1,3.7,65.5-207.8,53.2-215.1c-6.7-4-35.9,50.7-48.4,110.2
		C1626.9,266.4,1624.9,324.2,1631.6,326.1z"/>
	<path class="st4" d="M1532.3,172.6c0.6-37.3,3.5-55.9,8.7-56c10.6-0.2,30.6,76,60.2,228.4"/>
	<path class="st4" d="M1608.5,348c-12.7-5.7,19.3-209.9,32.9-208.2c7.8,1,14.7,70.4-1.2,134.3C1631.9,307.4,1614.7,350.7,1608.5,348
		z"/>
	<path class="st4" d="M1599.5,340.8c14.3-4.3-3.7-230.6-18.5-230.7c-8.1-0.1-19.2,67.5-11.8,130.5
		C1574.9,288.2,1592.2,343,1599.5,340.8z"/>
</g>
<g>
	<path class="st3" d="M1794.1,325.2c-20.1,3.2-73.1-227-45.4-243.7c5.4-3.3,12.8,2.3,17.8,6.2c63.2,49.5,54.5,201.6,30.9,235
		C1796.6,323.7,1795.6,325,1794.1,325.2z"/>
	<path class="st3" d="M1787.8,35.6c0.3,0.7,1.1,2.6,2.1,5.1c5.9,14.3,48.6,121.3,33.6,255.9c-2,18.3-3.4,21-4.6,21.2
		c-9.3,1.3-27.1-135.9-41-254.7"/>
	<path class="st3" d="M1852.1,74.3c-38.5,186.4-40.5,230.5-34,233c7.4,2.9,28.2-46.5,38.6-83.8c16.7-60.4,12.6-113,8.7-140.7"/>
	<path class="st3" d="M1827.1,303.6c14,6.2,97.2-195.8,84.5-205.5c-6.9-5.3-45.7,43.9-66.6,101.2
		C1829.1,242.8,1820,300.4,1827.1,303.6z"/>
	<path class="st4" d="M1715.3,184.4c-11.2-35.3-14.1-54.2-8.7-56.9c10.9-5.5,55.6,55.9,134.4,184.1"/>
	<path class="st4" d="M1802.4,313.6c-10.9-12.5,93.7-182,106.8-172.8c7.5,5.3-10,73-48.6,122.8
		C1840.6,289.5,1807.8,319.6,1802.4,313.6z"/>
	<path class="st4" d="M1834,326.8c19-4.2-4.9-226.7-24.4-226.9c-10.7-0.1-25.4,66.4-15.6,128.3C1801.4,275.1,1824.3,329,1834,326.8z
		"/>
</g>
</svg>
