<?xml version="1.0" encoding="utf-8"?>
<!-- Generator: Adobe Illustrator 22.1.0, SVG Export Plug-In . SVG Version: 6.00 Build 0)  -->
<svg version="1.1" id="Слой_1" xmlns="http://www.w3.org/2000/svg" xmlns:xlink="http://www.w3.org/1999/xlink" x="0px" y="0px"
	 viewBox="0 0 288.1 430" style="enable-background:new 0 0 288.1 430;" xml:space="preserve">
<style type="text/css">
	.st0{fill:#2D2D2D;}
	.st1{fill:#774912;}
	.st2{fill:#A1C2E2;}
	.st3{fill:#4061BF;}
	.st4{fill:none;stroke:#231F20;stroke-miterlimit:10;}
	.st5{fill:#343951;}
	.st6{fill:#F9F44B;}
	.st7{fill:#3F3F3F;}
	.st8{opacity:0.5;fill:#2D2D2D;enable-background:new    ;}
	.st9{fill:#AAAAAA;}
	.st10{fill:#918331;stroke:#000000;stroke-miterlimit:10;}
</style>
<path id="XMLID_239_" class="st0" d="M193.8,326.3L67.7,283.2c-4.2-1.5-6.5-6.1-5.1-10.3L111.8,129c1.5-4.2,6.1-6.5,10.3-5.1
	L248.2,167c4.2,1.5,6.5,6.1,5.1,10.3l-49.2,143.9C202.7,325.5,198,327.8,193.8,326.3z"/>
<rect id="XMLID_165_" x="86.7" y="163.8" transform="matrix(0.3236 -0.9462 0.9462 0.3236 -100.7895 300.1962)" class="st1" width="145.8" height="113.5"/>
<path id="XMLID_227_" class="st2" d="M128.3,136.6c9.4,9.4,24.4,16.2,45.3,23.3c24.5,8.4,42.4,12.2,56.7,7.9l-100.9-34.5
	L128.3,136.6z"/>
<path id="XMLID_170_" class="st0" d="M191.1,257L112,229.9c-10.8-3.7-13.9,6.6-18.2,19.1l0,0c-4.3,12.5-8.1,22.5,2.7,26.2l79.1,27.1
	c10.8,3.7,13.9-6.6,18.2-19.1l0,0C198,270.7,201.9,260.6,191.1,257z"/>
<rect id="XMLID_167_" x="66.3" y="281.7" transform="matrix(0.3236 -0.9462 0.9462 0.3236 -223.1206 293.4546)" class="st1" width="54.8" height="42.1"/>
<rect id="XMLID_192_" x="82.2" y="309.5" transform="matrix(0.3236 -0.9462 0.9462 0.3236 -255.8629 303.2622)" class="st0" width="4" height="42.1"/>
<polygon id="XMLID_171_" class="st1" points="83.5,397.5 43.7,383.8 60.5,324.7 106,340.2 "/>
<path id="XMLID_172_" class="st0" d="M32.6,380.1c0,0,1.7-27.7,18.7-18.5c16.9,9.2,25.1,33.5,25.1,33.5L32.6,380.1z"/>
<rect id="XMLID_169_" x="55.4" y="363.8" transform="matrix(0.3236 -0.9462 0.9462 0.3236 -330.8484 318.5992)" class="st3" width="4" height="53.8"/>
<path id="XMLID_176_" class="st2" d="M78.5,395.8l5,1.7l4-10.1C80.8,387.7,78.5,395.8,78.5,395.8z"/>
<rect id="XMLID_179_" x="133.9" y="304.9" transform="matrix(0.3236 -0.9462 0.9462 0.3236 -199.2793 373.0903)" class="st1" width="54.8" height="42.1"/>
<rect id="XMLID_193_" x="149.7" y="332.8" transform="matrix(0.3236 -0.9462 0.9462 0.3236 -232.1552 382.8926)" class="st0" width="4" height="42.1"/>
<polygon id="XMLID_180_" class="st1" points="89.8,112.7 65.7,147.9 110.1,170.7 129.4,133.3 "/>
<polygon id="XMLID_181_" class="st4" points="51.3,74 21.7,104 58.6,144.2 91.9,110.5 "/>
<polygon id="XMLID_173_" class="st1" points="51.3,74 21.7,104 58.6,144.2 91.9,110.5 "/>
<rect id="XMLID_185_" x="14.1" y="87.5" transform="matrix(0.7036 -0.7106 0.7106 0.7036 -52.1076 51.7484)" class="st3" width="43.7" height="1.7"/>
<path id="XMLID_182_" class="st1" d="M13,59.3l-6,6.1c-5.3,5.3-5.2,14,0.1,19.3l14.3,14.1l22.2-22.5l-17.3-17
	C22.6,55.6,16.7,55.6,13,59.3z"/>
<polygon id="XMLID_178_" class="st1" points="111.3,407 151.1,420.6 174.1,363.5 128.6,347.9 "/>
<path id="XMLID_177_" class="st0" d="M162.2,424.4c0,0,15.6-23-3.4-26.1s-40.3,11.1-40.3,11.1L162.2,424.4z"/>
<rect id="XMLID_175_" x="134.1" y="390.6" transform="matrix(0.3236 -0.9462 0.9462 0.3236 -302.984 411.1219)" class="st3" width="4" height="53.8"/>
<path id="XMLID_174_" class="st5" d="M116.3,408.7l-5-1.7l3.1-10.4C119.5,400.9,116.3,408.7,116.3,408.7z"/>
<path id="XMLID_220_" class="st0" d="M43.1,76.7l3.1-9.5c0.8-2.4-0.5-5.1-3-5.8c-2.4-0.8-5.1,0.5-5.8,3L35,71.6
	c-3.3-0.1-7,0.9-9.4,4.5c-5.2,8,4.7,13.6,4.7,13.6L43.1,76.7z"/>
<polygon id="XMLID_190_" class="st1" points="234.7,285.5 275.8,276.3 266.5,222.6 220.2,232.9 "/>
<rect id="XMLID_189_" x="233.6" y="280.9" transform="matrix(0.9757 -0.219 0.219 0.9757 -55.5023 62.7831)" class="st3" width="43.7" height="1.7"/>
<path id="XMLID_187_" class="st1" d="M276.3,294.6l-3.6-16.1l-18.9,4.2l0,0l-8,1.8v0.1l-5.1,9.5c-1.1,2-0.3,4.4,1.7,5.5
	s4.4,0.3,5.5-1.7l0.6-1.2l1.7,7.8c1.1,4.8,5.8,7.8,10.6,6.7l5.7-1.3C273.5,308.4,277.8,301.5,276.3,294.6z"/>
<path id="XMLID_197_" class="st0" d="M261.9,223.6c0.4-2.7-0.5-5.7-2.4-7.8l-36.2,16.5L261.9,223.6z"/>
<polygon id="XMLID_195_" class="st1" points="241.5,176.5 218.4,227.2 221.1,233.2 259.4,215.8 "/>
<path id="XMLID_191_" class="st0" d="M236.8,170c2.8,0.4,4.9,4.3,4.7,6.4l-23.2,50.8l-0.9-0.5L236.8,170z"/>
<path id="XMLID_183_" class="st3" d="M110.1,170.7c0.8,1,3.5,2.2,5.6,2.5l13.6-40L110.1,170.7z"/>
<path id="XMLID_200_" class="st0" d="M59.7,143L59.7,143c0,0,1.5,3,6,4.9l24-35.2L59.7,143z"/>
<path id="XMLID_202_" class="st6" d="M143.8,201.3c-0.6,1.8-2.6,2.8-4.4,2.1c-1.8-0.6-2.8-2.6-2.1-4.4c0.6-1.8,2.6-2.8,4.4-2.1
	S144.4,199.5,143.8,201.3z"/>
<rect id="XMLID_203_" x="188" y="196.4" transform="matrix(0.3236 -0.9462 0.9462 0.3236 -64.0873 316.9216)" class="st7" width="3.3" height="13.8"/>
<rect id="XMLID_205_" x="185.9" y="202.6" transform="matrix(0.3236 -0.9462 0.9462 0.3236 -71.3595 319.1211)" class="st7" width="3.3" height="13.8"/>
<rect id="XMLID_207_" x="181.5" y="214.8" transform="matrix(0.3236 -0.9462 0.9462 0.3236 -85.8765 323.3134)" class="st7" width="3.3" height="13.8"/>
<rect id="XMLID_208_" x="179.4" y="221.1" transform="matrix(0.3236 -0.9462 0.9462 0.3236 -93.2221 325.5412)" class="st7" width="3.3" height="13.8"/>
<path id="XMLID_204_" class="st2" d="M106.5,197.8l19.4,6.6l-1.8,5.2l-19.4-6.6c-1.4-0.5-2.2-2.1-1.7-3.5l0,0
	C103.5,198.1,105,197.3,106.5,197.8z"/>
<path id="XMLID_210_" class="st2" d="M113.9,176.1l19.4,6.6l-1.8,5.2l-19.4-6.6c-1.4-0.5-2.2-2.1-1.7-3.5l0,0
	C110.9,176.4,112.5,175.6,113.9,176.1z"/>
<path id="XMLID_212_" class="st2" d="M221.1,218.5l-19.4-6.6l1.8-5.2l19.4,6.6c1.4,0.5,2.2,2.1,1.7,3.5l0,0
	C224.1,218.3,222.5,219,221.1,218.5z"/>
<path id="XMLID_211_" class="st2" d="M213.6,240.3l-19.4-6.6l1.8-5.2l19.4,6.6c1.4,0.5,2.2,2.1,1.7,3.5l0,0
	C216.6,240,215.1,240.8,213.6,240.3z"/>
<path id="XMLID_224_" class="st2" d="M81.6,273.1L81.6,273.1l29.1,15.2l-31.3-21.2C79.5,269.4,80.2,271.4,81.6,273.1z"/>
<path id="XMLID_226_" class="st2" d="M194.4,306.5l-37-2.2l31.6,5.5l0,0C191.1,309.4,192.9,308.2,194.4,306.5z"/>
<polygon id="XMLID_223_" class="st0" points="65.7,147.9 112.7,165.6 110.1,170.7 "/>
<polygon id="XMLID_209_" class="st2" points="221.2,220.9 223.2,232.3 221.1,233.2 218.4,227.2 "/>
<polygon id="XMLID_228_" class="st0" points="21.7,104 61.7,141.2 58.6,144.2 "/>
<polygon id="XMLID_229_" class="st0" points="220.2,232.9 224.9,231.9 234.7,285.5 "/>
<polygon id="XMLID_230_" class="st0" points="76.3,288.6 68.9,323.3 64.9,321.9 "/>
<polygon id="XMLID_231_" class="st0" points="143.3,313.5 137.1,346.6 132.5,345 "/>
<ellipse id="XMLID_168_" transform="matrix(0.6746 -0.7382 0.7382 0.6746 2.2655 180.3633)" class="st1" cx="205.7" cy="87.6" rx="78.5" ry="76.6"/>
<path id="XMLID_236_" class="st8" d="M198.8,136.1c-57.1-25.5-58.3-44.6-41.4-82.4c4.1-9.2,10.1-16.4,17.4-21.7
	c-17.7,4.7-31.8,16.3-38.2,35c-13.4,39.2-10.5,58.1,48.7,78.3c32.7,11.2,51.5,12.2,64.1,4.2C237.3,150.4,221.3,146.2,198.8,136.1z"
	/>
<path id="XMLID_232_" class="st9" d="M238.5,62.5c4-5.3,17.7,5.1,23.1,14.8s6.5,18.2,1.7,20.4c-6.4,2.9-6.3-8.1-13.3-16.7
	C245.8,75.9,234.3,68.1,238.5,62.5z"/>
<rect x="271.8" y="95.5" transform="matrix(0.9403 0.3403 -0.3403 0.9403 56.2584 -86.8824)" class="st10" width="8.1" height="42.9"/>
<rect x="130.3" y="35.1" transform="matrix(0.909 0.4168 -0.4168 0.909 35.7857 -50.8362)" class="st10" width="8.1" height="42.9"/>
<rect x="234.9" y="-5.9" transform="matrix(-0.4168 0.909 -0.909 -0.4168 352.5948 -195.1589)" class="st10" width="8.1" height="42.9"/>
</svg>
