<svg preserveAspectRatio="xMinYMin slice" version="1.1" x="100px" y="0px"
   viewBox="0 0 1920 3080" class='svg'>

<g  class='star'>
  <path class="st62" d="M129.1,2817.7c-0.9-4.1-8-40.6-7.8-55.1c0.1-14.6-7.6-48.3,22.2-22.5c28.5,24.7,50.9,46,69.6,39.7
    c21-7,71.9-25.3,78.7-25.4c6.7-0.1,13.7,7.8-7.3,33.3c-21,25.4-37.9,31.7-15.9,51.3c29,25.6,55.3,45.4,47.9,57.1
    c-7.5,11.9-27.5,7.4-56.5-5.7c-26.6-12-51.8-30.3-53.5,10.1c-1.2,30.6,5.1,73.6-11.9,78.5c-16.5,4.8-28.8-26.8-39.9-50.8
    s-9.6-49.7-30.6-44.2s-66.9,19.6-74.4,6c-5.2-9.4,21.6-29.6,43-40.3C115,2838.9,133.4,2836.2,129.1,2817.7z"/>
  <path class="st6" d="M231.7,2844.6c-2.3-3.8-7.2-5.4-10.9-3.4c-3.7,1.9-4.9,6.7-2.6,10.5s7.2,5.4,10.9,3.4
    C232.8,2853.2,234,2848.4,231.7,2844.6z"/>
  <path class="st6" d="M169.5,2801.7c-2.3-3.8-7.2-5.4-10.9-3.4c-3.7,1.9-4.9,6.7-2.6,10.5c2.3,3.8,7.2,5.4,10.9,3.4
    C170.7,2810.3,171.8,2805.5,169.5,2801.7z"/>
  <path class="st6" d="M235.2,2797.8c-2.3-3.8-7.2-5.4-10.9-3.4c-3.7,1.9-4.9,6.7-2.6,10.5c2.3,3.8,7.2,5.4,10.9,3.4
    C236.3,2806.3,237.5,2801.6,235.2,2797.8z"/>
  <path class="st6" d="M205.5,2827.2c-1.7-2.8-5.2-3.9-7.9-2.5c-2.7,1.5-3.5,4.9-1.9,7.6c1.7,2.8,5.2,3.9,7.9,2.5
    C206.3,2833.4,207.2,2830,205.5,2827.2z"/>
  <path class="st6" d="M182.3,2889c-1.7-2.8-5.2-3.9-7.9-2.5c-2.7,1.5-3.5,4.9-1.9,7.6s5.2,3.9,7.9,2.5
    C183.1,2895.1,184,2891.7,182.3,2889z"/>
  <path class="st6" d="M151.3,2855.3c-1.7-2.8-5.2-3.9-7.9-2.5c-2.7,1.5-3.5,4.9-1.9,7.6c1.7,2.8,5.2,3.9,7.9,2.5
    C152.1,2861.5,153,2858.1,151.3,2855.3z"/>
  <path class="st6" d="M158.6,2777.8c-1.7-2.8-5.2-3.9-7.9-2.5c-2.7,1.5-3.5,4.9-1.9,7.6c1.7,2.8,5.2,3.9,7.9,2.5
    C159.5,2784.1,160.3,2780.7,158.6,2777.8z"/>
</g>
</svg>