<?xml version="1.0" encoding="utf-8"?>
<!-- Generator: Adobe Illustrator 22.1.0, SVG Export Plug-In . SVG Version: 6.00 Build 0)  -->
<svg version="1.1" id="Слой_1" xmlns="http://www.w3.org/2000/svg" xmlns:xlink="http://www.w3.org/1999/xlink" x="0px" y="0px"
	 viewBox="0 0 64 41.6" style="enable-background:new 0 0 64 41.6;" xml:space="preserve">
<style type="text/css">
	.st0{fill:url(#SVGID_1_);}
	.st1{fill:#B8B8B8;fill-opacity:0.448;}
</style>
<linearGradient id="SVGID_1_" gradientUnits="userSpaceOnUse" x1="414.4109" y1="-524.6385" x2="414.171" y2="-508.8685" gradientTransform="matrix(2.6392 0 0 -2.6533 -1058.9188 -1340.046)">
	<stop  offset="0" style="stop-color:#ADD4E9"/>
	<stop  offset="1" style="stop-color:#F0FBFE"/>
</linearGradient>
<path class="st0" d="M26,8.7c-1.1-0.9-2.5-1.4-4-1.4c-3.6,0-6.5,2.9-6.6,6.5c-3.7,1.4-6.3,5-6.3,9.2c0,5,3.7,9.1,8.4,9.7v0.1h33.6v0
	c4.7-0.3,8.4-4.2,8.4-9c0-4.6-3.5-8.5-7.9-9c0-0.3,0-0.6,0-0.9c0-7.2-6-13-13.4-13C32.8,0.9,28.1,4.1,26,8.7"/>
<path class="st1" d="M44.5,13.9c-3.1,0-5.8,1.8-7,4.4c-0.6-0.5-1.4-0.8-2.3-0.8c-2,0-3.7,1.6-3.7,3.7c-0.5,0.2-1,0.5-1.5,0.9
	c-2.5,0.5-4.5,2.2-5.5,4.4c-0.7-0.5-1.5-0.8-2.4-0.8c-0.4,0-0.9,0.1-1.2,0.2c-1-1.3-2.6-2.1-4.4-2.1c-2.2,0-4.2,1.3-5,3.2v0
	c-0.5-0.4-1-0.6-1.6-0.6c-1.5,0-2.6,1.2-2.7,2.6c-1.5,0.6-2.6,2-2.6,3.8c0,2,1.5,3.7,3.4,4v0h6.7c0.7,2.1,2.5,3.7,4.7,4v0.1h20v0
	c2.1-0.1,3.8-1.4,4.6-3.3h10.4v0c1.9-0.1,3.4-1.7,3.4-3.7c0-1.6-1.1-3-2.5-3.5c0.8-0.9,1.3-2.1,1.3-3.4c0-2.6-2-4.8-4.5-5.1
	c0-0.2,0-0.3,0-0.5C52.1,17.3,48.7,13.9,44.5,13.9"/>
</svg>
