<?xml version="1.0" encoding="utf-8"?>
<!-- Generator: Adobe Illustrator 22.1.0, SVG Export Plug-In . SVG Version: 6.00 Build 0)  -->
<svg version="1.1" id="Слой_1" xmlns="http://www.w3.org/2000/svg" xmlns:xlink="http://www.w3.org/1999/xlink" x="0px" y="0px"
	 viewBox="0 0 64 64" style="enable-background:new 0 0 64 64;" xml:space="preserve">
<style type="text/css">
	.st0{fill:#B8B8B8;stroke:#38558E;stroke-linecap:round;stroke-miterlimit:10;}
</style>
<line class="st0" x1="43" y1="38.5" x2="41.2" y2="41.1"/>
<line class="st0" x1="40" y1="30.5" x2="38.2" y2="33.1"/>
<line class="st0" x1="32.9" y1="29.3" x2="31.1" y2="31.8"/>
<line class="st0" x1="20.3" y1="24.7" x2="18.5" y2="27.3"/>
<line class="st0" x1="35.6" y1="21" x2="33.8" y2="23.5"/>
<line class="st0" x1="49.8" y1="26" x2="48" y2="28.6"/>
<line class="st0" x1="22.5" y1="10.8" x2="20.6" y2="13.4"/>
<line class="st0" x1="40" y1="30.5" x2="38.2" y2="33.1"/>
<line class="st0" x1="21.5" y1="30.5" x2="19.7" y2="33.1"/>
<line class="st0" x1="37.9" y1="36.7" x2="36" y2="39.2"/>
<line class="st0" x1="9" y1="31.5" x2="7.2" y2="34"/>
<line class="st0" x1="46" y1="18.3" x2="44.2" y2="20.9"/>
<line class="st0" x1="30.9" y1="19.6" x2="29.1" y2="22.2"/>
<line class="st0" x1="39.1" y1="49.9" x2="37.3" y2="52.5"/>
<line class="st0" x1="40" y1="30.5" x2="38.2" y2="33.1"/>
<line class="st0" x1="52.7" y1="27.8" x2="50.8" y2="30.4"/>
<line class="st0" x1="49.7" y1="19.8" x2="47.8" y2="22.4"/>
<line class="st0" x1="42.6" y1="18.5" x2="40.8" y2="21.1"/>
<line class="st0" x1="30" y1="13.9" x2="28.2" y2="16.5"/>
<line class="st0" x1="45.3" y1="10.2" x2="43.4" y2="12.8"/>
<line class="st0" x1="59.5" y1="15.2" x2="57.7" y2="17.8"/>
<line class="st0" x1="31.2" y1="4.5" x2="29.4" y2="7"/>
<line class="st0" x1="49.7" y1="19.8" x2="47.8" y2="22.4"/>
<line class="st0" x1="31.2" y1="19.8" x2="29.4" y2="22.4"/>
<line class="st0" x1="47.5" y1="25.9" x2="45.7" y2="28.5"/>
<line class="st0" x1="18.7" y1="20.7" x2="16.8" y2="23.3"/>
<line class="st0" x1="55.7" y1="7.5" x2="53.8" y2="10.1"/>
<line class="st0" x1="40.6" y1="8.8" x2="38.8" y2="11.4"/>
<line class="st0" x1="48.8" y1="39.1" x2="46.9" y2="41.7"/>
<line class="st0" x1="49.7" y1="19.8" x2="47.8" y2="22.4"/>
<line class="st0" x1="47" y1="56" x2="45.2" y2="58.6"/>
<line class="st0" x1="44" y1="48" x2="42.2" y2="50.6"/>
<line class="st0" x1="37" y1="46.7" x2="35.1" y2="49.3"/>
<line class="st0" x1="24.4" y1="42.2" x2="22.5" y2="44.7"/>
<line class="st0" x1="39.6" y1="38.4" x2="37.8" y2="41"/>
<line class="st0" x1="53.9" y1="43.5" x2="52" y2="46"/>
<line class="st0" x1="26.5" y1="28.3" x2="24.7" y2="30.9"/>
<line class="st0" x1="44" y1="48" x2="42.2" y2="50.6"/>
<line class="st0" x1="25.6" y1="48" x2="23.7" y2="50.6"/>
<line class="st0" x1="41.9" y1="54.1" x2="40.1" y2="56.7"/>
<line class="st0" x1="13" y1="48.9" x2="11.2" y2="51.5"/>
<line class="st0" x1="50" y1="35.7" x2="48.2" y2="38.3"/>
<line class="st0" x1="35" y1="37" x2="33.1" y2="39.6"/>
<line class="st0" x1="43.1" y1="67.3" x2="41.3" y2="69.9"/>
<line class="st0" x1="44" y1="48" x2="42.2" y2="50.6"/>
</svg>
