<?xml version="1.0" encoding="utf-8"?>
<!-- Generator: Adobe Illustrator 22.1.0, SVG Export Plug-In . SVG Version: 6.00 Build 0)  -->
<svg version="1.1" id="Capa_1" xmlns="http://www.w3.org/2000/svg" xmlns:xlink="http://www.w3.org/1999/xlink" x="0px" y="0px"
	 viewBox="0 0 527 433.1" style="enable-background:new 0 0 527 433.1;" xml:space="preserve">
<style type="text/css">
	.st0{fill:#DD5B5B;}
</style>
<g>
	<path class="st0" d="M480.3,1.1H61.9c-15.8,0-28.6,12.8-28.6,28.6v374.9c0,15.8,12.8,28.6,28.6,28.6h418.4
		c15.8,0,28.6-12.8,28.6-28.6V29.6C508.9,13.9,496,1.1,480.3,1.1z M394.1,49.1c0-5.8,4.7-10.6,10.6-10.6h10.6
		c5.8,0,10.6,4.7,10.6,10.6v12c0,5.8-4.7,10.6-10.6,10.6h-10.6c-5.8,0-10.6-4.7-10.6-10.6V49.1z M345.1,49.1
		c0-5.8,4.7-10.6,10.6-10.6h10.6c5.8,0,10.6,4.7,10.6,10.6v12c0,5.8-4.7,10.6-10.6,10.6h-10.6c-5.8,0-10.6-4.7-10.6-10.6V49.1z
		 M474.6,398.8h-407V103.3h407V398.8L474.6,398.8z M474.8,61c0,5.8-4.7,10.6-10.6,10.6h-10.6c-5.8,0-10.6-4.7-10.6-10.6v-12
		c0-5.8,4.7-10.6,10.6-10.6h10.6c5.8,0,10.6,4.7,10.6,10.6V61z"/>
	<path class="st0" d="M135.4,262.2l76.5,35.6c2,0.9,4.1,1.4,6.3,1.4c2.8,0,5.6-0.8,8-2.3c4.3-2.7,6.9-7.4,6.9-12.5v-0.4
		c0-5.8-3.4-11.1-8.6-13.5l-47.8-22.2l47.8-22.2c5.2-2.4,8.6-7.7,8.6-13.5v-0.4c0-5.1-2.6-9.8-6.9-12.5c-2.4-1.5-5.1-2.3-8-2.3
		c-2.2,0-4.3,0.5-6.3,1.4l-76.5,35.6c-5.2,2.4-8.6,7.7-8.6,13.5v1.1C126.8,254.4,130.2,259.7,135.4,262.2z"/>
	<path class="st0" d="M233.7,334.6c2.8,3.8,7.3,6.1,12,6.1h0.4c6.5,0,12.2-4.2,14.2-10.3l50.4-156.1c1.4-4.5,0.6-9.5-2.1-13.3
		c-2.8-3.8-7.3-6.1-12-6.1h-0.4c-6.5,0-12.2,4.2-14.2,10.3l-50.4,156.1C230.1,325.8,230.9,330.8,233.7,334.6z"/>
	<path class="st0" d="M309.2,212.4c0,5.8,3.4,11,8.6,13.5l47.8,22.2l-47.8,22.2c-5.2,2.4-8.6,7.7-8.6,13.5v0.4
		c0,5.1,2.6,9.8,6.9,12.5c2.4,1.5,5.2,2.3,8,2.3c2.2,0,4.3-0.5,6.3-1.4l76.5-35.6c5.2-2.4,8.6-7.7,8.6-13.5v-1.1
		c0-5.8-3.4-11-8.6-13.5l-76.5-35.6c-1.9-0.9-4.1-1.4-6.2-1.4c-2.9,0-5.6,0.8-8,2.3c-4.3,2.7-6.9,7.4-6.9,12.5L309.2,212.4
		L309.2,212.4L309.2,212.4z"/>
</g>
</svg>
