<?xml version="1.0" encoding="utf-8"?>
<!-- Generator: Adobe Illustrator 22.1.0, SVG Export Plug-In . SVG Version: 6.00 Build 0)  -->
<svg version="1.1"
	 id="svg2989" inkscape:version="0.48.3.1 r9886" sodipodi:docname="circle_arrow_left_font_awesome.svg" xmlns:cc="http://creativecommons.org/ns#" xmlns:dc="http://purl.org/dc/elements/1.1/" xmlns:inkscape="http://www.inkscape.org/namespaces/inkscape" xmlns:rdf="http://www.w3.org/1999/02/22-rdf-syntax-ns#" xmlns:sodipodi="http://sodipodi.sourceforge.net/DTD/sodipodi-0.dtd" xmlns:svg="http://www.w3.org/2000/svg"
	 xmlns="http://www.w3.org/2000/svg" xmlns:xlink="http://www.w3.org/1999/xlink" x="0px" y="0px" viewBox="0 0 524.6 524.6"
	 style="enable-background:new 0 0 524.6 524.6;" xml:space="preserve">
<style type="text/css">
	.st0{fill:#009933;}
</style>
<sodipodi:namedview  bordercolor="#666666" borderopacity="1" gridtolerance="10" guidetolerance="10" id="namedview2995" inkscape:current-layer="svg2989" inkscape:cx="896" inkscape:cy="896" inkscape:pageopacity="0" inkscape:pageshadow="2" inkscape:window-height="480" inkscape:window-maximized="0" inkscape:window-width="640" inkscape:window-x="0" inkscape:window-y="25" inkscape:zoom="0.13169643" objecttolerance="10" pagecolor="#ffffff" showgrid="false">
	</sodipodi:namedview>
<g id="g2991" transform="matrix(1,0,0,-1,129.08475,1277.8305)">
	<path id="path2993" inkscape:connector-curvature="0" class="st0" d="M308.1,993.7v43.7c0,5.9-2.2,11-6.5,15.4
		c-4.3,4.3-9.4,6.5-15.4,6.5H114.8l64.5,64.5c4.3,4.3,6.5,9.4,6.5,15.4s-2.2,11-6.5,15.4l-31.1,31.1c-4.1,4.1-9.2,6.1-15.4,6.1
		c-6.1,0-11.3-2-15.4-6.1L-6.1,1062l-31.1-31.1c-4.1-4.1-6.1-9.2-6.1-15.4c0-6.1,2-11.3,6.1-15.4l31.1-31.1l123.6-123.6
		c4.1-4.1,9.2-6.1,15.4-6.1c6.1,0,11.3,2,15.4,6.1l31.1,31.1c4.1,4.1,6.1,9.2,6.1,15.4c0,6.1-2,11.3-6.1,15.4l-64.5,64.5h171.4
		c5.9,0,11,2.2,15.4,6.5C305.9,982.6,308.1,987.8,308.1,993.7z M395.5,1015.5c0-47.6-11.7-91.5-35.2-131.7
		c-23.5-40.2-55.3-72-95.5-95.5c-40.2-23.5-84.1-35.2-131.7-35.2S41.7,765,1.5,788.4c-40.2,23.5-72,55.3-95.5,95.5
		s-35.2,84.1-35.2,131.7c0,47.6,11.7,91.5,35.2,131.7s55.3,72,95.5,95.5c40.2,23.5,84.1,35.2,131.7,35.2s91.5-11.7,131.7-35.2
		c40.2-23.5,72-55.3,95.5-95.5C383.8,1107,395.5,1063.1,395.5,1015.5z"/>
</g>
</svg>
