<?xml version="1.0" encoding="utf-8"?>
<!-- Generator: Adobe Illustrator 22.1.0, SVG Export Plug-In . SVG Version: 6.00 Build 0)  -->
<svg version="1.1" id="Слой_1" xmlns="http://www.w3.org/2000/svg" xmlns:xlink="http://www.w3.org/1999/xlink" x="0px" y="0px"
	 viewBox="0 0 1280 833" style="enable-background:new 0 0 1280 833;" xml:space="preserve">
<style type="text/css">
	.st0{fill:#FFFFFF;}
</style>
<g transform="translate(0.000000,833.000000) scale(0.100000,-0.100000)">
	<path class="st0" d="M1747,6964c-3-3-35-6-70-5c-35,0-95-6-133-15c-38-8-86-18-107-21c-87-13-220-111-266-194c-30-55-40-112-22-123
		c8-5,6-78-3-153c-3-21,0-33,10-37c7-3,11-11,8-19s2-20,11-27c8-7,15-26,15-42c0-25-3-28-20-23c-24,7-26-7-5-25c8-7,15-16,15-21
		s-7-9-15-9c-16,0-21-16-7-22c13-5,53-98,47-108c-3-5,2-21,12-36c17-26,17-27-5-20c-21,7-31-7-13-18c12-8,74-163,116-294l35-109
		v-197c0-189,2-205,39-394c58-288,85-687,57-841c-8-47-17-131-20-186s-12-140-21-190s-20-194-24-326c-5-130-11-241-14-246
		s-9-74-13-153c-4-80-11-155-15-168c-5-13-9-45-9-72s-5-52-10-55c-16-10-12-28,5-21c16,6,21-9,6-18c-5-3-7-24-4-47c4-29,2-44-8-50
		c-11-7-11-11,4-22c17-12,17-14,3-26c-21-18-10-34,15-21c15,8,19,7,19-4c0-7-7-17-16-20c-21-8-6-29,17-23c18,5,19,2,12-31
		c-4-21-6-49-6-64c1-15-2-30-8-33c-19-12,1-23,29-16c18,5,28,15,30,32c6,42,62,69,62,29c0-11-4-20-10-20c-5,0-10-5-10-11
		c0-7,11-8,31-4c29,7,30,5,24-15c-6-19-4-22,10-17c9,4,18,7,20,7s7,17,11,38c4,20,11,43,17,50c12,16,31,16,21,0c-4-7-9-23-10-36
		c-3-21,0-23,22-18c16,4,23,3,20-3c-4-5-2-13,4-16c18-11,80,57,80,88c0,16,5,27,13,27s24,11,37,25c21,22,25,39,32,148
		c5,67,13,156,18,197c6,41,15,179,21,305c5,127,17,295,25,375s19,190,24,245s14,132,20,170c16,100,17,629,3,829
		c-14,186-34,319-66,441c-17,68-21,120-26,340c-3,143-9,265-14,272c-4,6-12,36-18,66c-19,105-136,435-165,468c-13,14-12,18,10,32
		c58,38,495,60,631,32c44-9,105-21,135-27s80-17,111-24c32-8,106-23,165-34c60-11,140-27,179-35c87-20,288-99,329-130
		c17-12,50-32,72-43c23-12,70-52,104-89c59-65,61-70,57-113c-5-55-74-215-122-279c-19-26-43-68-54-93c-25-59-100-124-209-180
		c-140-73-300-110-384-88c-66,17-168,61-215,92c-41,28-83,37-83,18c0-5,11-17,24-26c27-17,25-46-2-37c-9,3-31,17-49,29
		c-17,13-39,24-47,24c-9,0-16,5-16,10c0,6-4,10-10,10c-5,0-7-8-3-17c6-17,5-17-14,0c-25,22-33,22-33-2c0-30-24-32-63-5
		c-51,34-68,32-57-6c8-29,6-34-14-31c-5,1-13-4-17-11c-6-9-13-8-30,7l-21,20l7-35c4-19,23-53,42-75c34-39,34-39,11-48
		c-14-5-24-4-26,2c-5,14-32,14-32,1c0-5,14-19,30-32c17-12,30-28,30-37c0-11-6-9-24,8c-26,25-46,13-21-12c8-9,15-20,15-26
		s18-23,40-37c22-15,40-31,40-36s10-18,23-28c12-10,19-21,16-25c-4-3-20,6-37,20c-31,26-67,34-60,13c9-25,83-66,205-114
		c68-26,123-51,123-55c0-5-6-7-12-5c-7,2-35,10-63,17c-71,17-163,56-212,90c-45,31-66,25-30-9c28-27,159-86,234-107
		c41-11,120-18,268-22c202-5,216-4,387,26c201,35,246,48,337,97c116,64,321,238,321,273c0,6,13,25,28,43c16,18,40,56,54,83
		c14,28,44,77,66,109c23,33,42,63,42,68c0,4,13,36,29,70c41,87,61,205,67,393c5,140,3,171-17,253c-12,54-32,109-48,131
		c-47,70-165,192-211,218c-25,14-68,41-97,60c-28,18-58,33-65,33c-8,0-29,8-49,18c-56,29-119,50-194,67c-118,26-248,53-281,58
		c-17,3-85,17-150,31c-65,15-149,33-185,41c-53,12-149,15-451,15C1926,6970,1751,6967,1747,6964z"/>
	<path class="st0" d="M8190,6025c0-22-4-34-12-32c-7,1-14-8-16-21c-3-19-6-21-18-11c-8,6-14,18-14,25c0,8-5,14-11,14
		c-12,0-9-219,7-516c5-89,3-153-6-200c-14-82-161-526-196-596c-14-27-45-99-70-161c-26-61-68-155-94-207s-60-125-74-163
		c-25-64-137-249-198-329c-16-20-54-90-84-154s-70-140-88-169c-31-47-39-53-93-68c-58-17-62-17-106,3c-26,12-49,29-52,41
		c-12,36,5,380,21,424c8,22,19,81,25,130c13,107,17,325,7,318c-5-2-8-13-8-24c0-10-7-19-15-19s-15,9-15,20s-5,20-11,20
		c-9,0-7,16,8,58c4,8-5,12-25,12c-26,0-31-5-37-31c-5-21-11-29-22-25c-8,3-17,6-19,6c-3,0-3,4,1,9c8,15-15,25-28,12
		c-18-18-29-13-22,12c5,16,4,18-4,8c-8-12-12-13-26-1c-14,11-17,10-22-8c-3-11-18-25-34-31c-16-5-29-17-29-25c0-9-7-16-15-16
		c-11,0-14,11-11,46c3,41,2,45-18,42c-13-2-23-12-26-28c-5-27-31-70-41-70c-14,0-16,50-3,61c8,6,14,16,14,22s-11,0-25-13
		c-21-19-25-21-25-7c0,21-13,22-29,3c-10-12-61-20-61-10c0,2,18,20,40,40s40,40,40,45c0,17-46,5-72-20c-23-20-28-22-28-8
		c0,21-14,22-30,2c-17-21-33-19-28,3c9,32-37,20-90-25c-49-42-75-56-54-30c13,16,11,87-2,87c-16-1-148-109-182-150
		c-17-19-60-84-96-145c-69-116-148-236-178-270c-10-11-43-68-74-128c-57-108-67-155-39-179c10-8,10-15,1-32c-7-11-13-41-14-66
		c-2-36,4-52,27-82c28-36,35-58,23-71c-4-4-8-24-10-45c-3-33,1-42,26-60c16-13,44-25,62-29c18-3,43-13,56-21c18-12,58-14,225-10
		l202,4l95,43c52,24,103,50,112,58c15,14,19,11,37-26c14-27,21-59,21-100c0-82,38-132,135-181c68-34,74-35,208-38
		c113-3,138-6,133-17c-3-8,1-20,7-27c7-7,16-21,20-30c3-10,14-18,22-18c11,0,15-6,11-17c-12-36-23-113-18-118c3-3,16-5,29-5
		c16,0,31,12,49,40c15,22,28,40,31,40c2,0,2-12,1-27c-3-23,1-28,18-26c14,2,24-4,27-17c7-29,24-24,43,11c12,25,18,29,25,18
		s12-12,29-1c18,11,20,10,20-8c0-27,10-25,42,9c65,68,248,336,304,444c14,27,15,27,46,11c18-9,43-20,57-24c14-5,73-30,131-57l105-48
		h245c135,1,265,4,290,9c90,17,244,76,275,106l30,29l20-45c11-24,23-44,28-44s6-29,2-64c-6-57-5-66,14-85c18-18,32-20,149-20
		c169,0,257,17,362,67c71,34,341,201,442,273c15,10,30,19,33,19s5-62,5-137c0-121,3-142,20-168c15-22,20-47,20-96c0-69,8-84,45-84
		c14,0,21,9,25,30c5,31,40,50,40,22c0-23,24-39,38-25c9,9,12,7,12-9c0-11,7-23,15-26c17-7,20-3,30,40c8,38,25,54,25,24
		c0-25,17-36,34-22c10,9,15,7,19-9c7-28,25-25,33,5c3,14,11,22,16,19c13-8,28,14,28,41c0,11,16,33,35,48c22,17,35,37,35,51
		c0,13,14,38,32,56c27,29,32,41,33,87c1,58-15,93-43,93c-16,1-16,1,0,11c9,5,15,16,12,24c-4,10,3,18,20,25c34,12,33,22-1,20
		c-50-4-63,0-63,16c0,9,8,23,18,30c16,13,16,13,0,14c-42,0-6,223,87,545c13,43,16,79,12,132c-3,39-1,87,5,106c7,22,7,40,1,52
		c-9,16-11,16-27,0c-22-22-31-13-28,30c3,34,2,35-34,35c-27,0-37-5-41-20c-6-24-16-25-33-5c-10,12-16,13-26,4c-11-9-14-8-14,4
		c0,21-58,16-75-7c-13-17-15-17-30-2c-9,9-14,20-10,26c3,5,0,18-7,29c-16,26-3,39,22,23c17-10,20-10,20,3c0,12-14,15-68,15
		c-63,0-92,10-92,32c0,5,23,7,50,5c28-2,53-1,55,3c14,23-34,28-240,26l-221-1l-119-90c-154-115-404-363-465-462c-25-40-47-73-50-73
		s-6,28-7,63c-4,102-58,333-91,387c-37,60-151,159-229,199c-39,19-58,21-244,21c-164,0-200,2-196,13c3,8,22,65,42,128s52,157,71,209
		c61,171,72,237,79,458c8,231-3,712-16,712c-5,0-9-20-9-45s-4-45-10-45c-5,0-10,9-10,19c0,11-4,23-10,26c-5,3-10,28-10,56
		c0,48-1,49-30,49s-30-2-30-44c0-25-4-48-10-51c-6-4-10,5-10,19c0,17-6,26-16,26c-8,0-13,4-9,9c9,16-15,24-30,11c-12-10-15-8-16,11
		c-1,18-2,20-6,6c-5-18-6-18-24-1c-19,17-20,17-26-4c-3-12-15-24-26-28s-29-16-39-28c-17-21-17-20-18,27c0,40-3,47-20,47
		C8194,6060,8190,6053,8190,6025z"/>
	<path class="st0" d="M4124,5785c-3-19-10-35-15-35s-9-7-9-16s-6-14-12-11c-7,2-12,11-10,21c4,22-14,21-22-1c-3-10-9-24-12-32
		c-5-10-2-12,10-8c18,7,22-8,5-18c-7-5-2-15,12-28c21-19,21-22,6-25c-16-3-22-25-18-66c0-10-4-24-9-31c-7-9-7-15-1-19c5-4,12-2,16,4
		c12,19,26,11,15-9c-18-34-12-43,20-36c16,4,34,4,39,1c13-8,2-46-12-40c-15,5-38-42-30-62c3-8,0-21-6-28c-8-9-8-16-2-20
		c5-4,12-2,16,4c9,15,28,12,19-2c-5-10-4-10,7,0c7,6,13,24,14,40c0,15,5,27,10,28c6,0,18,4,28,9c25,11,32-1,18-31
		c-11-25-11-26,20-19c28,6,30,5,24-14c-3-12-2-21,3-21c15,0,29,22,36,56c4,18,16,40,28,50c23,21,23,26,3-45c-10-33,13-33,30-1
		c20,39,37,39,22,0c-17-45-1-47,38-6c37,40,45,66,19,66c-8,0-12,5-9,10c3,6,17,10,30,10c14,0,32,11,45,28c19,24,21,36,17,101
		c-2,44-9,77-15,79c-17,5-15,19,8,42c20,20,27,50,12,50c-4,0-12-10-17-21c-11-23-29-27-31-6c-2,29-5,31-19,13c-8-11-26-20-40-21
		c-20,0-25,4-25,22c0,13-4,23-10,23c-5,0-10,7-10,15c0,17-16,20-25,5c-11-18-25-11-26,13c0,21-1,21-9,2c-7-18-8-19-15-2
		c-10,24-20,21-33-8c-7-14-20-25-31-25c-10,0-21-9-24-20s-10-20-16-20c-11,0-15,24-11,68c1,16-4,22-19,22S4129,5811,4124,5785z"/>
	<path class="st0" d="M4404,5803c-7-26-1-37,19-38c17-2,37,22,37,44C4460,5828,4409,5822,4404,5803z"/>
	<path class="st0" d="M3703,5010c-21-48-51-72-38-30c12,38-12,20-30-22c-10-24-26-52-35-63s-36-53-61-93c-100-167-147-242-202-325
		c-32-49-65-105-74-125c-34-82-157-329-178-357c-29-38-45-76-102-245l-46-135l-5-170c-4-166,8-298,29-311c5-3,9-20,9-38s5-58,11-88
		c9-46,20-64,56-100l44-43h172c95,1,202,6,239,12c60,10,86,20,183,71c17,8,48,24,70,35s47,26,55,32c8,7,44,25,80,41
		c62,26,140,88,128,100c-4,3-20-2-38-11s-33-15-35-13c-9,8,13,27,55,48c25,12,60,36,78,51c56,50,80,34,42-28c-11-18-17-40-14-48
		c4-8,1-22-5-29c-8-9-8-16-2-20c5-4,17,4,26,16l17,23l-5-23c-7-32,11-17,28,24c8,19,24,38,37,43c31,12,32,8,14-28c-9-17-12-32-7-36
		c5-3,12-1,16,4c9,15,35,1,28-15c-3-8,1-14,9-14s26,24,41,53c24,45,27,48,23,20c-7-46,9-49,34-8c12,19,26,35,31,35c6,0,3-10-5-22
		c-17-23-22-58-8-58c14,1,62,62,146,187c41,61,105,133,117,133c5,0,9-5,9-11c0-14,73-177,132-294c22-44,59-105,83-135
		c57-75,75-112,75-159c0-22,5-43,10-46c6-4,10,7,10,24c0,42,20,40,21-1c1-32,2-32,9,7c4,22,6,43,3,48c-7,12,12,8,25-5c9-9,12-8,12,5
		c0,9,5,17,10,17c6,0,10-16,10-35c0-30,3-34,22-32c14,1,23-4,23-12c0-34,22-18,36,26c17,56,39,69,39,24c0-36,19-42,28-8
		c6,20,7,20,12-7c8-48,30-44,31,6c0,36,2,39,9,21c15-36,30-27,30,17c0,32,4,40,18,40c11,0,27,9,37,20c15,17,17,34,13,124
		c-3,58-1,103,4,100c15-10,8,81-11,122c-10,22-32,56-48,75c-17,19-45,59-63,89c-46,78-161,331-154,341c3,5,33,28,67,51
		s105,74,159,115c53,40,127,89,165,110c37,20,100,58,138,83c59,39,321,170,341,170c11,0,66,61,60,67c-3,4-22-1-41-10s-35-12-35-7
		c0,11,74,60,89,60c6,0,21,10,35,23c26,24,45,77,28,77c-5,0-8,11-7,25c5,39-6,65-26,65c-23,0-25,15-4,24c8,3,12,12,9,20
		c-3,9,3,17,15,21c12,3,21,11,21,16c0,6-4,7-10,4c-5-3-24-8-42-10s-48-7-65-11c-22-4-33-2-33,5c0,6,5,11,11,11c5,0,8,4,5,9
		c-3,4,12,16,34,26c78,35,40,42-68,12c-43-11-52-12-48-1c8,22-27,21-81-2c-53-23-68-20-56,12c5,15,2,16-23,10
		c-55-13-307-136-371-181c-36-25-95-61-132-80c-36-19-87-51-113-71l-48-36v30c0,17,16,79,35,138c33,101,34,110,25,172
		c-8,48-8,73,1,93c6,16,9,34,6,41c-3,8-9,2-16-15c-12-31-31-28-31,4c0,11-4,17-10,14c-13-8-13,6,0,39c9,24,7,26-18,26
		c-21,0-30-7-39-30c-8-21-16-28-27-24c-9,3-16,12-16,20c0,16-16,19-25,4c-12-19-26-10-20,13c5,16,4,18-4,8c-7-12-13-12-24-3
		c-12,10-18,8-31-13c-9-14-23-25-31-25s-19-9-25-20c-18-33-29-23-27,25c2,37-1,45-16,45c-10,0-22-12-27-27c-18-49-33-73-46-73
		c-7,0-10,8-7,20c3,11,1,20-4,20c-7,0-44-95-59-155c-14-52-26-142-34-250c-6-71-14-150-20-175c-5-25-9-95-10-156v-111l-62-49
		c-84-66-241-222-314-312c-64-79-125-180-119-198c4-13-86-47-96-37c-11,12,11,37,49,57c17,9,32,20,32,25c0,11-51,7-76-7
		c-12-6-24-9-27-6s-15,0-27-6c-27-15-37-6-19,17c10,14,10,16,0,6c-7-6-19-9-26-7c-7,3-34-4-59-16c-51-23-70-19-61,11c4,10,2,19-3,19
		c-18,0-234-109-311-158c-19-12-21-10-21,13c0,15,20,88,45,163c31,97,59,160,95,217c27,43,50,83,50,87c0,12,140,298,174,353
		c16,28,42,66,58,85c15,19,28,39,28,45s28,54,63,106c61,92,100,155,159,257c30,51,38,135,18,187c-7,19-6,34,5,55c17,33,19,50,6,50
		c-5,0-11-10-15-23c-3-13-12-24-20-24s-12,6-9,13c8,21-8,39-19,23c-9-14-6,6,9,54c4,13,0,17-20,17c-18,0-28-8-37-29
		c-12-30-40-33-40-5c0,16-16,19-25,4c-3-5-13-10-21-10c-12,0-12,4-4,20c7,14,7,20,0,20c-5,0-10-5-10-12c0-9-3-9-12,0
		c-17,17-25,15-31-8c-3-11-16-24-30-29c-13-5-27-17-30-25c-12-31-27-15-27,29C3760,5079,3732,5077,3703,5010z"/>
	<path class="st0" d="M11040,4327c0-22-6-37-15-41c-8-3-15-12-15-21c0-16-19-21-21-5c-1,6-2,15-3,20c0,6-5,11-11,13
		c-12,2-13-3-24-163c-6-69-14-145-19-170c-15-70-72-257-93-307c-10-25-19-55-19-67s-7-46-15-76c-38-134-45-195-45-403
		c0-188,2-212,20-247c13-26,20-59,20-96c0-82,32-133,105-168c54-25,61-26,238-26c114,1,212,6,262,15c126,23,121,28,71-77
		c-24-51-51-110-60-130c-43-103-191-223-327-267c-35-11-89-29-119-40s-90-29-133-40c-42-12-112-30-154-42c-136-37-382-86-623-124
		c-106-16-247-42-395-70c-44-9-114-20-155-25c-41-6-129-23-195-39c-238-57-398-81-555-81c-63,0-187-5-275-12c-138-10-198-9-435,7
		c-206,14-462,20-1025,25l-750,7l-175,31c-96,18-206,38-245,46c-38,8-131,24-205,36s-171,29-215,38c-103,20-239,28-730,42
		c-353,9-409,13-480,32c-65,17-126,22-320,29c-240,8-340,17-405,37c-42,12-231,54-355,77c-49,9-151,19-225,22s-140,10-147,15
		c-6,5-94,14-195,20c-166,11-390,12-1030,6c-198-2-234,0-318,20c-82,19-124,22-318,22c-174,0-222-3-216-12c21-34,12-48-33-48
		c-24,0-43-4-43-10c0-5,9-10,20-10s20-4,20-10c0-5-7-10-15-10c-19,0-19-5,2-29c9-11,21-17,26-14c6,4,8-1,4-10c-4-11-1-17,8-17
		c8,0,15-4,15-10c0-5-18-10-41-10c-28,0-39-4-37-12c3-7,15-13,29-13c32,0,32-30,0-30c-43-1-37-25,6-26c37-1,37-1,10-11
		c-35-12-26-28,17-28c19,0,33-5,33-12s2-17,3-23c6-24-2-35-25-35c-14,0-25-4-25-9c0-13,26-21,66-21c20,0,34-5,34-12c0-9-16-13-47-13
		c-27,0-50-4-53-10s37-12,106-16c61-4,120-11,130-17c53-27,187-34,584-29c223,2,423,8,445,12c40,8,297-7,435-26c41-6,138-14,215-19
		c155-9,318-36,500-82c163-42,213-48,490-57c162-6,258-13,295-24c76-21,159-26,580-38c517-15,533-16,945-90c61-11,186-33,279-49
		s176-32,185-35c45-18,573-35,1071-35c374,0,631-5,819-16c191-11,364-14,570-11c404,7,779,23,843,36c29,6,125,25,213,41
		s176,35,195,40c19,6,112,24,205,40c94,17,220,39,280,50c61,11,151,27,200,35c399,63,767,146,978,220c40,14,92,32,117,39
		c45,13,203,105,273,159c39,30,144,154,166,196c7,13,28,44,47,68c19,25,34,50,34,56c0,7,33,82,74,167c136,284,180,390,220,535
		c10,33,32,110,51,170c78,253,88,290,94,344c4,32,17,75,31,97c13,21,27,59,31,84c8,49,33,148,54,220c19,63,23,102,31,289
		c4,117,3,161-5,157c-6-4-11-19-11-32c0-16-5-24-12-22c-15,5-26,40-27,85c-1,28-4,32-28,30s-29-7-33-41l-5-39l-24,32
		c-19,24-27,28-37,20c-11-9-14-8-14,5c0,9-4,16-10,16c-5,0-10-5-10-11c0-8-4-8-15,1c-16,14-35,6-35-16c0-13-12-19-33-15
		c-5,1-11-8-14-19c-9-33-29-23-31,17c-2,21-7,42-12,47c-13,13-30-3-30-29c0-13-5-27-11-30c-6-4-14-17-19-29c-8-20-8-20-20,9l-12,30
		l-14-55c-8-30-20-66-28-80s-17-56-21-95c-4-38-16-92-26-118c-11-26-19-58-19-70c0-49-32-142-64-186c-18-25-43-66-56-90
		c-12-24-50-83-85-131s-73-106-84-128c-37-72-153-155-297-213c-60-24-94-3-94,58s96,413,157,578c15,39,22,117,43,435
		c6,102,6,158,0,164c-7,7-10-6-10-37c0-26-4-47-8-47c-10,0-32,81-32,119c0,26-3,29-27,27c-25-3-28-8-31-42c-3-39-22-74-22-41
		c0,10-7,29-16,43c-16,23-18,24-35,8c-18-16-19-16-20,7c0,13-3,18-6,11c-4-10-8-10-19-2c-15,14-34,5-34-16c0-13-12-18-32-15
		c-4,0-12-8-18-19c-17-32-29-23-32,22c-2,31-8,44-20,46C11044,4361,11040,4354,11040,4327z"/>
</g>
</svg>
