<?xml version="1.0" encoding="utf-8"?>
<!-- Generator: Adobe Illustrator 22.1.0, SVG Export Plug-In . SVG Version: 6.00 Build 0)  -->
<svg version="1.1" id="Слой_1" xmlns="http://www.w3.org/2000/svg" xmlns:xlink="http://www.w3.org/1999/xlink" x="0px" y="0px"
	 viewBox="0 0 1000 1000" style="enable-background:new 0 0 1000 1000;" xml:space="preserve">
<style type="text/css">
	.st0{fill:#FFFFFF;}
</style>
<g>
	<g transform="translate(0.000000,511.000000) scale(0.100000,-0.100000)">
		<path class="st0" d="M4913,4157.1c-111.7-55.8-125.6-117.7-125.6-548.5v-387L4544,3464.9c-135.6,131.7-265.3,251.4-289.3,263.3
			c-24,12-75.8,22-115.7,22c-149.6,0-237.4-171.6-161.6-315.2c15.9-29.9,205.4-229.4,418.9-442.8l390.9-389v-438.9v-438.9
			L4246.7,2274c-297.2,301.2-558.5,568.5-582.5,594.5c-29.9,31.9-61.9,43.9-129.7,43.9c-73.8,0-99.7-12-155.6-67.8
			c-75.8-75.8-89.8-171.6-37.9-269.3c15.9-31.9,109.7-361,209.5-732.1c99.7-373,185.5-688.2,189.5-702.2c5.9-14,2-22-5.9-17.9
			c-215.4,117.7-762,440.8-762,448.8s-67.8,261.3-147.6,562.5c-135.6,500.7-153.6,552.6-209.5,602.4c-89.8,79.8-185.5,75.8-273.3-12
			c-47.9-47.9-67.8-85.8-67.8-127.7c0-33.9,39.9-207.5,87.8-387c49.9-177.5,85.8-329.2,81.8-333.1c-4-4-143.6,71.8-311.2,167.6
			c-426.9,247.4-407,239.4-500.7,211.5c-83.8-25.9-155.6-115.7-155.6-197.5c0-99.7,55.8-157.6,273.3-283.2
			c117.7-67.8,277.3-161.6,355.1-205.4l137.7-79.8l-357.1-97.7c-416.9-111.8-458.8-137.7-458.8-287.3c0-77.8,10-99.8,65.8-149.6
			c43.9-37.9,85.7-57.8,129.7-57.8c33.9,0,297.2,63.8,582.5,139.6c285.2,77.8,532.6,139.6,548.5,139.6c25.9,0,782-422.9,772-430.8
			c-17.9-17.9-1442.2-387-1490.1-387c-45.8,0-83.8-20-131.7-67.8c-55.8-55.8-67.8-83.8-67.8-151.6c0-109.7,99.8-219.4,201.5-219.4
			c47.9,0,1470.1-369.1,1488.1-385c8-10-746-432.9-770-432.9c-15.9,0-263.3,61.9-550.5,139.7c-287.3,75.8-550.5,139.6-584.5,139.6
			c-85.8,0-181.6-87.8-195.5-179.5c-8-51.9,0-87.8,35.9-139.7c49.9-73.8,73.8-83.8,604.4-223.4l177.5-47.9l-353-205.4
			c-361-209.5-412.9-255.3-412.9-365c0-81.8,71.8-171.6,155.6-197.5c93.8-27.9,73.8-35.9,500.7,211.5
			c167.6,95.7,307.2,171.6,311.2,167.6c4-4-31.9-155.6-81.8-333.1c-47.9-179.5-87.8-351-87.8-383c0-87.8,91.8-179.6,191.5-193.4
			c69.8-8,91.8-2,147.6,47.9c59.9,53.9,73.8,95.7,211.5,604.4c79.8,301.2,147.6,554.6,147.6,560.5c0,8,155.6,103.7,345.1,211.5
			C3758-827.7,3752-829.7,3740-861.7c-5.9-14-89.8-329.2-189.5-702.2c-99.8-371-193.5-700.2-209.5-732.1
			c-51.9-97.7-37.9-193.4,37.9-269.3c55.8-55.8,81.8-67.8,155.6-67.8c67.8,0,99.7,12,129.7,45.8c24,24,285.2,291.2,582.5,592.5
			l540.6,548.5V-1885v-438.9l-390.9-389c-213.4-213.4-402.9-412.9-418.9-442.8c-75.8-143.6,12-315.2,161.6-315.2
			c39.9,0,91.8,10,115.7,22s153.6,131.7,289.3,263.3l243.3,243.3v-387c0-434.9,14-494.7,129.7-548.5c81.8-39.9,97.7-39.9,179.6,0
			c115.7,53.9,129.7,113.7,129.7,548.5v387l245.3-243.3c133.6-131.7,263.3-251.4,287.3-263.3s75.8-22,115.7-22
			c149.6,0,237.4,171.6,161.6,315.2c-15.9,29.9-205.5,229.4-418.9,442.8l-390.9,389v438.9v438.9l540.6-548.5
			c297.3-301.2,558.5-568.5,582.5-594.5c29.9-32,61.9-43.9,129.7-43.9c73.8,0,99.8,12,155.6,67.8c77.8,77.8,89.8,171.6,37.9,271.3
			c-15.9,31.9-111.7,361-209.5,732.1c-99.7,371-185.5,686.2-189.5,700.1c-12,31.9-17.9,33.9,420.8-219.4l341.1-195.5l147.6-554.6
			c133.6-506.7,151.7-558.5,211.5-620.4c59.8-59.9,75.8-65.8,151.6-55.8c99.8,14,193.5,103.7,193.5,189.5
			c0,29.9-39.9,201.5-87.8,383c-47.8,181.5-85.7,333.1-81.8,337.1c4,4,143.6-71.8,311.2-167.6c426.9-247.4,407-239.4,500.7-211.5
			c85.7,25.9,155.6,115.7,155.6,201.5c0,105.7-65.8,165.5-385,347.1c-171.6,95.7-325.2,187.5-343.1,199.5
			c-25.9,17.9,29.9,39.9,289.3,107.7c407,107.7,410.9,109.7,458.8,187.5c81.8,129.7-14,315.2-163.5,315.2
			c-33.9,0-297.2-63.8-584.5-139.6c-287.3-77.8-534.6-139.7-550.5-139.7c-24,0-777.9,422.9-770,432.9
			c17.9,15.9,1440.2,385,1488.1,385c39.9,0,83.8,20,125.6,57.8c57.8,51.9,65.8,69.8,65.8,161.6s-8,109.7-65.8,161.6
			c-41.9,37.9-85.7,57.8-125.6,57.8c-47.9,0-1472.2,369.1-1488.1,385c-7.9,10,746,432.9,770,432.9c15.9,0,263.3-63.8,550.5-139.6
			c287.3-77.8,550.5-139.6,584.5-139.6c81.8,0,179.5,83.8,195.5,167.6c14,77.8-29.9,177.5-97.7,217.4
			c-24,15.9-193.5,67.8-377.1,115.7c-185.5,47.9-329.2,91.8-319.2,99.8c8,8,165.5,101.8,349.1,207.5
			c337.1,195.5,393,245.3,393,349.1c0,117.7-141.7,237.4-251.4,211.5c-24-5.9-193.4-97.7-377-203.4
			c-181.6-105.7-335.1-189.5-339.1-185.5c-4,4,33.9,155.6,81.8,337.1c47.9,181.6,87.8,355.1,87.8,385c0,39.9-22,79.8-67.8,125.6
			c-93.8,93.8-189.5,93.8-279.3,4c-57.8-59.8-77.8-119.7-209.5-618.3L7035.9,1556l-371-211.5c-203.4-117.7-377-217.4-385-221.5
			c-7.9-4-12,4-5.9,17.9c4,14,89.8,331.1,189.5,702.2c99.8,371,195.5,702.2,211.5,732.1c49.9,97.7,35.9,193.5-39.9,269.3
			c-57.8,57.8-81.8,67.8-161.6,67.8c-81.8,0-101.8-8-147.6-63.8c-27.9-33.9-287.2-301.2-574.5-592.4l-524.6-530.6v438.9v438.9
			l390.9,389c213.4,213.4,402.9,412.9,418.9,442.8c75.8,143.6-12,315.2-161.6,315.2c-39.9,0-91.8-10-115.7-22
			s-153.6-131.7-287.3-263.3l-245.3-243.3v387c0,434.9-14,494.7-129.7,548.5C5014.7,4197,4992.8,4197,4913,4157.1z M4783.4,821.8
			l-5.9-303.2L4528,662.2c-137.6,77.8-251.4,143.6-253.3,145.6c-4,2-67.8,239.4-145.6,530.6c-77.8,289.3-145.6,544.6-151.6,566.6
			s173.5-143.6,399-369.1l412.9-410.9L4783.4,821.8z M5894.4,1366.4c-83.8-305.2-151.7-556.6-155.6-558.5
			c-2-2-115.7-67.8-253.3-145.6l-249.4-143.6l-5.9,303.2l-6,303.2l405,405c221.5,221.5,404.9,400.9,409,399
			C6040,1924.9,5976.2,1671.6,5894.4,1366.4z M4322.5,289.2c135.6-75.8,245.3-143.6,245.3-149.6s-115.7-75.7-257.3-155.5
			l-259.3-145.6L3502.7-15.9c-303.2,79.8-550.5,149.6-550.5,155.5c0,14,1061.2,297.2,1097.1,293.2
			C4065.2,430.9,4188.9,367,4322.5,289.2z M6506.8,295.2c305.2-79.8,554.6-149.6,554.6-155.6S6812,63.9,6506.8-15.9l-552.5-147.6
			L5701-15.9c-139.6,79.8-255.3,149.6-255.3,155.5c0,8,468.8,289.3,498.7,297.2C5950.3,438.8,6203.6,375,6506.8,295.2z
			 M4384.4-1250.7c-221.5-221.5-404.9-400.9-409-399c-4,5.9,289.3,1113,297.2,1121c4,2,117.7,69.8,255.3,147.6l249.4,141.7
			l5.9-303.2l6-303.2L4384.4-1250.7z M5525.4-405c115.7-65.8,211.5-121.7,213.4-123.7c4-2,67.8-239.4,145.6-530.6
			c77.8-289.3,145.6-544.6,153.6-566.5c5.9-22-175.5,143.6-400.9,369.1l-410.9,409v305.2v305.2l45.8-24
			C5296-273.3,5409.7-339.1,5525.4-405z"/>
	</g>
</g>
</svg>
