<?xml version="1.0" encoding="utf-8"?>
<!-- Generator: Adobe Illustrator 22.1.0, SVG Export Plug-In . SVG Version: 6.00 Build 0)  -->
<svg version="1.1" id="Слой_1" xmlns="http://www.w3.org/2000/svg" xmlns:xlink="http://www.w3.org/1999/xlink" x="0px" y="0px"
	 viewBox="0 0 1000 1000" style="enable-background:new 0 0 1000 1000;" xml:space="preserve">
<style type="text/css">
	.st0{fill:#FFFFFF;}
</style>
<g>
	<path class="st0" d="M419.9,710.2c0,14.2-11.5,25.7-25.7,25.7s-25.7-11.5-25.7-25.7c0-43.5-35.3-78.8-78.8-78.8
		c-14.2,0-25.7-11.5-25.7-25.7s11.5-25.7,25.7-25.7C361.6,580.1,419.9,638.4,419.9,710.2z M946,500c0,245.9-200.1,446-446,446
		c-41.5,0-82.6-5.7-122.2-17c-27.2,10.9-56.9,17-87.9,17C159.8,946,54,840.2,54,710.2c0-31,6-60.7,17-87.9
		C59.7,582.6,54,541.6,54,500C54,254.1,254.1,54,500,54S946,254.1,946,500z M474.3,710.2c0-101.8-82.8-184.6-184.6-184.6
		s-184.6,82.8-184.6,184.6S188,894.8,289.7,894.8C391.6,894.8,474.3,811.9,474.3,710.2z M894.8,500c0-217.6-177.1-394.8-394.8-394.8
		S105.2,282.4,105.2,500c0,19.6,1.5,39.1,4.3,58.3c43.3-51.3,108-83.9,180.3-83.9c130.1,0,235.8,105.8,235.8,235.8
		c0,72.3-32.7,137-83.9,180.3c19.2,2.8,38.7,4.3,58.3,4.3C717.6,894.8,894.8,717.6,894.8,500z M500,175.9
		c-14.2,0-25.7,11.5-25.7,25.7c0,14.2,11.5,25.7,25.7,25.7c150.5,0,272.9,122.4,272.9,272.9c0,14.2,11.5,25.7,25.7,25.7
		s25.7-11.5,25.7-25.7C824.1,321.2,678.8,175.9,500,175.9z"/>
</g>
</svg>
